<svg xmlns="http://www.w3.org/2000/svg" xmlns:xlink="http://www.w3.org/1999/xlink" width="1em" height="1em" preserveAspectRatio="xMidYMid meet" viewBox="0 0 24 24" style="-ms-transform: rotate(360deg); -webkit-transform: rotate(360deg); transform: rotate(360deg);"><path fill="currentColor" d="M9.55 17.575q-.2 0-.375-.063Q9 17.45 8.85 17.3L4.55 13q-.275-.275-.263-.713q.013-.437.288-.712q.275-.275.7-.275q.425 0 .7.275L9.55 15.15l8.475-8.475q.275-.275.713-.275q.437 0 .712.275q.275.275.275.712q0 .438-.275.713l-9.2 9.2q-.15.15-.325.212q-.175.063-.375.063Z"/></svg>